<svg width="81" height="80" viewBox="0 0 81 80" fill="none" xmlns="http://www.w3.org/2000/svg">
<rect x="0.31543" width="80" height="80" fill="black"/>
<path fill-rule="evenodd" clip-rule="evenodd" d="M40.3149 7.625L11.3975 22.0837V57.9235L40.3149 72.375L69.2324 57.9235V22.0837L40.3149 7.625ZM13.5515 23.415V54.7378L25.1547 48.0387V30.607L39.2379 23.5654V10.5718L13.5515 23.415ZM40.3149 69.967L14.1393 56.8857L26.2031 49.9207L40.3153 56.9733L54.4423 49.9133L66.5058 56.8781L40.3149 69.967ZM67.0784 54.7215L55.476 48.0228V30.607L41.392 23.565V10.5718L67.0784 23.415V54.7215ZM27.3087 33.218V48.0652L39.2379 54.0268L39.238 40.1054L27.3087 33.218ZM40.3645 38.2685L52.2538 31.4042L40.3153 25.435L28.4295 31.3779L40.3645 38.2685ZM41.392 40.1626V54.0272L53.3219 48.0652V33.2748L41.392 40.1626Z" fill="white"/>
</svg>