<svg width="56" height="63" viewBox="0 0 56 63" fill="none" xmlns="http://www.w3.org/2000/svg">
<path d="M28.2038 31.6191L54.9326 48.2952L28.2038 61.669L1.33398 48.2003L28.2038 31.6191Z" fill="black"/>
<path d="M1.33398 48.2003L28.2038 61.6578L54.9326 48.2952M1.33398 48.2003L28.2038 31.6191L54.9326 48.2952M1.33398 48.2003L28.2038 61.669L54.9326 48.2952" stroke="white" stroke-width="0.01"/>
<path d="M54.9133 48.2951L28.1846 31.6191V1.60156L54.9822 14.9741L54.9133 48.2951Z" fill="black"/>
<path d="M54.9133 48.2951L28.1846 31.6191V1.60156M54.9133 48.2951L54.9722 14.9803L28.1846 1.60156M54.9133 48.2951L54.9822 14.9741L28.1846 1.60156" stroke="white" stroke-width="0.01"/>
<path d="M28.1846 31.6191L1.31478 48.2002L1.2832 14.9741L28.1846 1.60156V31.6191Z" fill="black"/>
<path d="M1.31478 48.2002L1.2932 14.9803L28.1846 1.60156M1.31478 48.2002L28.1846 31.6191V1.60156M1.31478 48.2002L1.2832 14.9741L28.1846 1.60156" stroke="white" stroke-width="0.01"/>
<path fill-rule="evenodd" clip-rule="evenodd" d="M1.35224 14.9754L1.28333 48.2964L28.081 61.6689L54.9824 48.2964L54.9508 15.0703L28.081 1.60157L1.35224 14.9754ZM54.9724 48.2902L54.9508 15.0703L28.081 1.61275L1.35224 14.9754L1.29333 48.2902L28.081 61.6689L54.9724 48.2902Z" fill="black"/>
<path fill-rule="evenodd" clip-rule="evenodd" d="M1.35224 14.9754L1.28333 48.2964L28.081 61.6689L54.9824 48.2964L54.9508 15.0703L28.081 1.60157L1.35224 14.9754ZM54.9724 48.2902L54.9508 15.0703L28.081 1.61275L1.35224 14.9754L1.29333 48.2902L28.081 61.6689L54.9724 48.2902Z" fill="black"/>
<path d="M54.9508 15.0703L54.9724 48.2902L28.081 61.6689M54.9508 15.0703L28.081 1.61275L1.35224 14.9754M54.9508 15.0703L28.081 31.6515M54.9508 15.0703L54.9824 48.2964L28.081 61.6689M54.9508 15.0703L28.081 1.60157L1.35224 14.9754M1.35224 14.9754L28.081 31.6515M1.35224 14.9754L1.29333 48.2902L28.081 61.6689M1.35224 14.9754L1.28333 48.2964L28.081 61.6689M28.081 31.6515L28.081 61.6689" stroke="white" stroke-width="2"/>
<path d="M28.0618 31.6514L1.33304 14.9753L28.0618 1.60148L54.9316 15.0702L28.0618 31.6514Z" fill="white" fill-opacity="0.25"/>
<path d="M54.9316 15.0702L28.0618 1.61266L1.33304 14.9753M54.9316 15.0702L28.0618 31.6514L1.33304 14.9753M54.9316 15.0702L28.0618 1.60148L1.33304 14.9753" stroke="white" stroke-width="0.01"/>
<path d="M1.35229 14.9754L28.0811 31.6515L28.0811 61.6689L1.28339 48.2964L1.35229 14.9754Z" fill="white" fill-opacity="0.75"/>
<path d="M1.35229 14.9754L28.0811 31.6515L28.0811 61.6689M1.35229 14.9754L1.29339 48.2902L28.0811 61.6689M1.35229 14.9754L1.28339 48.2964L28.0811 61.6689" stroke="white" stroke-width="0.01"/>
</svg>
