<svg width="55" height="62" viewBox="0 0 55 62" fill="none" xmlns="http://www.w3.org/2000/svg">
<path d="M9.22156 18.1378L7.19958 21.6399H11.2435L9.22156 18.1378Z" fill="white"/>
<path d="M27.4656 48.8257L29.4875 52.3278H25.4437L27.4656 48.8257Z" fill="white"/>
<path d="M43.3884 21.6401L45.4103 18.138L47.4323 21.6401L43.3884 21.6401Z" fill="white"/>
<path fill-rule="evenodd" clip-rule="evenodd" d="M27.3154 0.94043L0.46582 14.3652V47.642L27.3154 61.0601L54.1649 47.642V14.3652L27.3154 0.94043ZM2.46582 15.6013V44.6841L13.2393 38.4641V22.279L26.3154 15.7409V3.6765L2.46582 15.6013ZM27.3154 58.8242L3.0116 46.6784L14.2126 40.2115L27.3157 46.7598L40.4325 40.2047L51.6332 46.6714L27.3154 58.8242ZM52.1649 44.669L41.3922 38.4493V22.279L28.3154 15.7405V3.6765L52.1649 15.6013V44.669ZM15.2393 24.7033V38.4887L26.3154 44.024L26.3154 31.0981L15.2393 24.7033ZM27.3614 29.3926L38.4005 23.0192L27.3157 17.4768L16.2799 22.9947L27.3614 29.3926ZM28.3154 31.1512V44.0244L39.3922 38.4887V24.756L28.3154 31.1512Z" fill="white"/>
</svg>
