<svg xmlns="http://www.w3.org/2000/svg" width="60" height="60" fill="white"  xmlns:v="https://vecta.io/nano"><path d="M55.654 0H40.25v4h16v16h4V4.596L55.654 0zM.25 20V4.596L4.846 0H20.25v4h-16v16h-4zm0 35.404L4.846 60H20.25v-4h-16V40h-4v15.404zM56.25 40v16h-16v4h15.404l4.596-4.596V40h-4z" fill="#fff"/><path d="M13.277 6.489l17.47 20.864L46.22 6.589l-5.022 13.198 12.608-5.512-21.263 14.974 21.063 16.571-8.008-.431.721 8.217-15.174-21.962-14.874 22.461 1.408-8.189-11.59 1.999 23.359-18.368-23.16-16.072 11.722 4.042z" fill="#white" stroke="#white"/></svg>
