<svg width="60" height="60" viewBox="0 0 60 60" fill="none" xmlns="http://www.w3.org/2000/svg">
<path d="M19.0794 27.1714L20.908 29L39.593 29L41.4216 27.1714L44.25 29.9998L41.4216 32.8282L39.5933 31L20.9076 31L19.0794 32.8282L16.251 29.9998L19.0794 27.1714Z" fill="white"/>
<path d="M24.9222 16L26.8174 17.8952H33.6832L35.5784 16L38.4069 18.8284L35.5784 21.6569L33.7502 19.8286H26.7504L24.9222 21.6569L22.0938 18.8284L24.9222 16Z" fill="white"/>
<path d="M24.9222 38.3433L26.8174 40.2385H33.6832L35.5784 38.3433L38.4069 41.1717L35.5784 44.0001L33.7502 42.1719H26.7504L24.9222 44.0001L22.0938 41.1717L24.9222 38.3433Z" fill="white"/>
<path d="M55.6538 0H40.25V4H56.25V20H60.25V4.59619L55.6538 0Z" fill="white"/>
<path d="M0.25 20V4.59619L4.84619 0H20.25V4H4.25V20H0.25Z" fill="white"/>
<path d="M0.25 55.4038L4.84619 60H20.25V56H4.25V40H0.25V55.4038Z" fill="white"/>
<path d="M56.25 40V56H40.25V60H55.6538L60.25 55.4038V40H56.25Z" fill="white"/>
</svg>
